<svg width="48" height="48" viewBox="0 0 48 48" fill="none" xmlns="http://www.w3.org/2000/svg">
<rect width="48" height="48" rx="4" fill="#464E64"/>
<path d="M36 24C36 17.373 30.627 12 24 12C17.373 12 12 17.373 12 24C12 29.99 16.388 34.954 22.125 35.854V27.469H19.078V23.999H22.125V21.357C22.125 18.35 23.917 16.688 26.658 16.688C27.97 16.688 29.344 16.923 29.344 16.923V19.876H27.83C26.339 19.876 25.874 20.801 25.874 21.75V24H29.202L28.67 27.47H25.874V35.855C31.612 34.954 36 29.989 36 24Z" fill="#F7F5F6"/>
</svg>
