<svg width="48" height="48" viewBox="0 0 48 48" fill="none" xmlns="http://www.w3.org/2000/svg">
<rect width="48" height="48" rx="4" fill="#464E64"/>
<path d="M24.173 22.92V26.2H32.013C31.773 28.04 31.16 29.387 30.226 30.333C29.079 31.48 27.293 32.733 24.173 32.733C19.346 32.733 15.573 28.84 15.573 24.013C15.573 19.186 19.346 15.293 24.173 15.293C26.773 15.293 28.68 16.32 30.08 17.64L32.387 15.333C30.44 13.44 27.826 12 24.173 12C17.56 12 12 17.387 12 24C12 30.613 17.56 36 24.173 36C27.746 36 30.44 34.827 32.546 32.64C34.706 30.48 35.386 27.427 35.386 24.973C35.386 24.213 35.333 23.506 35.213 22.92H24.173Z" fill="#F7F5F6"/>
</svg>
