<svg xmlns="http://www.w3.org/2000/svg" xmlns:xlink="http://www.w3.org/1999/xlink" aria-hidden="true" role="img" id="footer-sample-full"   preserveAspectRatio="xMidYMid meet" viewBox="0 0 256 256" class="iconify iconify--ph" width="36"  height="36" ><path fill="currentColor" d="M149.7 190a8.1 8.1 0 0 1-1.4 6.9a7.8 7.8 0 0 1-6.3 3.1H18a7.8 7.8 0 0 1-6.3-3.1a8.1 8.1 0 0 1-1.4-6.9a72 72 0 0 1 40.6-47.9a48 48 0 1 1 58.2 0a72 72 0 0 1 40.6 47.9ZM152 88h96a8 8 0 0 0 0-16h-96a8 8 0 0 0 0 16Zm96 80h-72a8 8 0 0 0 0 16h72a8 8 0 0 0 0-16Zm0-48h-96a8 8 0 0 0 0 16h96a8 8 0 0 0 0-16Z"></path></svg>