<svg width="70" height="110" viewBox="0 0 70 110" fill="none" xmlns="http://www.w3.org/2000/svg">
<circle cx="35.5" cy="34.5" r="14.5" fill="#464E64"/>
<path d="M43 35.0034V42.0034C43 42.2686 42.8946 42.523 42.7071 42.7105C42.5196 42.8981 42.2652 43.0034 42 43.0034H28C27.7348 43.0034 27.4804 42.8981 27.2929 42.7105C27.1054 42.523 27 42.2686 27 42.0034V35.0034H43ZM37.5 24.0034C38.0906 24.0032 38.6717 24.1525 39.1892 24.4374C39.7066 24.7222 40.1435 25.1334 40.4592 25.6326C40.7749 26.1317 40.9592 26.7027 40.9948 27.2923C41.0305 27.8818 40.9163 28.4708 40.663 29.0044L44 29.0034C44.2652 29.0034 44.5196 29.1088 44.7071 29.2963C44.8946 29.4839 45 29.7382 45 30.0034V33.0034C45 33.2686 44.8946 33.523 44.7071 33.7105C44.5196 33.8981 44.2652 34.0034 44 34.0034H26C25.7348 34.0034 25.4804 33.8981 25.2929 33.7105C25.1054 33.523 25 33.2686 25 33.0034V30.0034C25 29.7382 25.1054 29.4839 25.2929 29.2963C25.4804 29.1088 25.7348 29.0034 26 29.0034L29.337 29.0044C28.9808 28.2561 28.9016 27.4056 29.1137 26.6044C29.3258 25.8032 29.8153 25.1033 30.4951 24.6292C31.1749 24.1551 32.0009 23.9376 32.826 24.0155C33.6512 24.0934 34.4219 24.4615 35.001 25.0544C35.326 24.7209 35.7147 24.4561 36.1439 24.2756C36.5732 24.095 37.0343 24.0025 37.5 24.0034V24.0034ZM32.5 26.0034C32.1148 26.0036 31.7444 26.152 31.4656 26.4178C31.1868 26.6837 31.021 27.0466 31.0025 27.4313C30.984 27.8161 31.1142 28.1933 31.3662 28.4846C31.6182 28.776 31.9726 28.9593 32.356 28.9964L32.5 29.0034H34V27.5034C34 27.1305 33.8611 26.771 33.6104 26.495C33.3597 26.219 33.0152 26.0462 32.644 26.0104L32.5 26.0034ZM37.5 26.0034L37.356 26.0104C37.0094 26.0436 36.6851 26.1964 36.4388 26.4425C36.1925 26.6887 36.0395 27.0128 36.006 27.3594L36 27.5034V29.0034H37.5L37.644 28.9964C38.015 28.9605 38.3594 28.7876 38.6099 28.5116C38.8605 28.2356 38.9993 27.8762 38.9993 27.5034C38.9993 27.1307 38.8605 26.7712 38.6099 26.4952C38.3594 26.2192 38.015 26.0464 37.644 26.0104L37.5 26.0034Z" fill="#9CFC97"/>
<path d="M34.9326 0C15.6386 0 0 15.6386 0 34.9326C0 43.2526 2.92555 50.8813 7.78669 56.8781C9.35364 58.8081 11.975 61.847 13.3415 63.9249C21.2094 75.878 31.3033 93.2375 34.2449 107.484C34.7495 109.916 35.3578 109.959 36.0127 107.563C38.1108 99.881 43.5523 83.097 54.7897 65.5347C56.1297 63.4404 58.8465 60.5092 60.5331 58.6844C62.976 56.0387 65.0092 53.0099 66.5542 49.7075C68.6605 45.2027 69.8647 40.2156 69.8647 34.9367C69.8647 15.6405 54.2261 0 34.9326 0ZM34.9326 53.8064C24.1637 53.8064 15.434 45.0768 15.434 34.3079C15.434 23.5408 24.1637 14.8115 34.9326 14.8115C45.7015 14.8115 54.4311 23.5412 54.4311 34.3079C54.4311 45.0771 45.7015 53.8064 34.9326 53.8064Z" fill="#464E64"/>
</svg>
