<svg width="70" height="110" viewBox="0 0 70 110" fill="none" xmlns="http://www.w3.org/2000/svg">
<circle cx="35.5" cy="34.5" r="14.5" fill="#464E64"/>
<path d="M35 44C29.477 44 25 39.523 25 34C25 28.477 29.477 24 35 24C40.523 24 45 28.477 45 34C45 39.523 40.523 44 35 44ZM30 31H32V35H34V31H36L33 27.5L30 31ZM40 37H38V33H36V37H34L37 40.5L40 37Z" fill="#F7F5F6"/>
<path d="M34.9326 0C15.6386 0 0 15.6386 0 34.9326C0 43.2526 2.92555 50.8813 7.78669 56.8781C9.35364 58.8081 11.975 61.847 13.3415 63.9249C21.2094 75.878 31.3033 93.2375 34.2449 107.484C34.7495 109.916 35.3578 109.959 36.0127 107.563C38.1108 99.881 43.5523 83.097 54.7897 65.5348C56.1297 63.4404 58.8465 60.5092 60.5331 58.6844C62.976 56.0387 65.0092 53.0099 66.5542 49.7075C68.6605 45.2027 69.8647 40.2156 69.8647 34.9367C69.8647 15.6405 54.2261 0 34.9326 0ZM34.9326 53.8064C24.1637 53.8064 15.434 45.0768 15.434 34.3079C15.434 23.5408 24.1637 14.8115 34.9326 14.8115C45.7015 14.8115 54.4311 23.5412 54.4311 34.3079C54.4311 45.0771 45.7015 53.8064 34.9326 53.8064Z" fill="#464E64"/>
</svg>
